<svg width="109" height="45" viewBox="0 0 109 45" fill="none" xmlns="http://www.w3.org/2000/svg">
<path d="M8.232 9.008C11.384 9.008 13.728 9.728 15.264 11.168C16.8 12.592 17.568 14.64 17.568 17.312C17.568 19.056 17.192 20.584 16.44 21.896C15.688 23.192 14.592 24.2 13.152 24.92C11.728 25.64 10.016 26 8.016 26C7.76 26 7.424 25.992 7.008 25.976C6.592 25.96 6.16 25.952 5.712 25.952C5.264 25.936 4.864 25.928 4.512 25.928C3.808 25.928 3.112 25.936 2.424 25.952C1.752 25.952 1.216 25.968 0.816 26V25.52C1.328 25.488 1.712 25.424 1.968 25.328C2.224 25.232 2.392 25.04 2.472 24.752C2.568 24.464 2.616 24.032 2.616 23.456V11.552C2.616 10.96 2.568 10.528 2.472 10.256C2.392 9.968 2.216 9.776 1.944 9.68C1.688 9.568 1.312 9.504 0.816 9.488V9.008C1.216 9.024 1.752 9.048 2.424 9.08C3.112 9.096 3.792 9.096 4.464 9.08C5.04 9.064 5.688 9.048 6.408 9.032C7.144 9.016 7.752 9.008 8.232 9.008ZM8.208 9.44C7.472 9.44 6.992 9.576 6.768 9.848C6.544 10.12 6.432 10.672 6.432 11.504V23.504C6.432 24.336 6.544 24.888 6.768 25.16C7.008 25.432 7.496 25.568 8.232 25.568C9.576 25.568 10.632 25.256 11.4 24.632C12.184 23.992 12.744 23.064 13.08 21.848C13.416 20.632 13.584 19.152 13.584 17.408C13.584 15.616 13.4 14.136 13.032 12.968C12.68 11.784 12.112 10.904 11.328 10.328C10.544 9.736 9.504 9.44 8.208 9.44ZM25.4008 13.256C26.8088 13.256 27.9128 13.672 28.7128 14.504C29.5128 15.336 29.9128 16.696 29.9128 18.584H22.0168L21.9688 18.128H26.8888C26.9048 17.344 26.8568 16.624 26.7448 15.968C26.6328 15.296 26.4568 14.76 26.2168 14.36C25.9768 13.96 25.6568 13.76 25.2568 13.76C24.6968 13.76 24.2168 14.112 23.8168 14.816C23.4328 15.52 23.2008 16.688 23.1208 18.32L23.1928 18.464C23.1768 18.656 23.1608 18.856 23.1448 19.064C23.1448 19.272 23.1448 19.488 23.1448 19.712C23.1448 20.816 23.2968 21.712 23.6008 22.4C23.9208 23.088 24.3208 23.592 24.8008 23.912C25.2808 24.216 25.7688 24.368 26.2648 24.368C26.6008 24.368 26.9448 24.32 27.2968 24.224C27.6648 24.112 28.0328 23.92 28.4008 23.648C28.7688 23.36 29.1128 22.96 29.4328 22.448L29.8648 22.592C29.6728 23.2 29.3688 23.792 28.9528 24.368C28.5368 24.944 28.0088 25.416 27.3688 25.784C26.7288 26.152 25.9608 26.336 25.0648 26.336C23.9768 26.336 23.0168 26.104 22.1848 25.64C21.3528 25.176 20.6968 24.472 20.2168 23.528C19.7528 22.584 19.5208 21.384 19.5208 19.928C19.5208 18.44 19.7688 17.2 20.2648 16.208C20.7768 15.216 21.4728 14.48 22.3528 14C23.2488 13.504 24.2648 13.256 25.4008 13.256ZM35.9586 30.512C34.9666 30.512 34.0786 30.424 33.2946 30.248C32.5266 30.088 31.9186 29.832 31.4706 29.48C31.0386 29.144 30.8226 28.728 30.8226 28.232C30.8226 27.736 31.0466 27.288 31.4946 26.888C31.9426 26.504 32.6066 26.2 33.4866 25.976L33.7026 26.36C33.3986 26.6 33.1746 26.856 33.0306 27.128C32.9026 27.416 32.8386 27.712 32.8386 28.016C32.8386 28.688 33.1426 29.2 33.7506 29.552C34.3746 29.92 35.2146 30.104 36.2706 30.104C36.9906 30.104 37.6306 30.008 38.1906 29.816C38.7666 29.624 39.2146 29.336 39.5346 28.952C39.8706 28.568 40.0386 28.096 40.0386 27.536C40.0386 27.056 39.8626 26.648 39.5106 26.312C39.1586 25.992 38.4546 25.832 37.3986 25.832H35.9106C35.2546 25.832 34.6786 25.76 34.1826 25.616C33.7026 25.472 33.3266 25.248 33.0546 24.944C32.7826 24.624 32.6466 24.224 32.6466 23.744C32.6466 23.072 32.9106 22.48 33.4386 21.968C33.9666 21.456 34.7506 20.976 35.7906 20.528L36.0306 20.72C35.7266 20.912 35.4386 21.12 35.1666 21.344C34.9106 21.552 34.7826 21.824 34.7826 22.16C34.7826 22.672 35.1026 22.928 35.7426 22.928H38.3586C39.2386 22.928 40.0226 23.032 40.7106 23.24C41.4146 23.448 41.9666 23.792 42.3666 24.272C42.7826 24.736 42.9906 25.344 42.9906 26.096C42.9906 26.88 42.7346 27.608 42.2226 28.28C41.7266 28.952 40.9586 29.488 39.9186 29.888C38.8786 30.304 37.5586 30.512 35.9586 30.512ZM36.1986 20.888C35.2866 20.888 34.4706 20.752 33.7506 20.48C33.0306 20.208 32.4626 19.792 32.0466 19.232C31.6306 18.672 31.4226 17.952 31.4226 17.072C31.4226 16.192 31.6306 15.472 32.0466 14.912C32.4626 14.336 33.0306 13.92 33.7506 13.664C34.4706 13.392 35.2866 13.256 36.1986 13.256C37.1106 13.256 37.9266 13.392 38.6466 13.664C39.3666 13.92 39.9346 14.336 40.3506 14.912C40.7666 15.472 40.9746 16.192 40.9746 17.072C40.9746 17.952 40.7666 18.672 40.3506 19.232C39.9346 19.792 39.3666 20.208 38.6466 20.48C37.9266 20.752 37.1106 20.888 36.1986 20.888ZM36.1986 20.456C36.6306 20.456 36.9666 20.216 37.2066 19.736C37.4466 19.24 37.5666 18.352 37.5666 17.072C37.5666 15.792 37.4466 14.912 37.2066 14.432C36.9666 13.936 36.6306 13.688 36.1986 13.688C35.7826 13.688 35.4466 13.936 35.1906 14.432C34.9506 14.912 34.8306 15.792 34.8306 17.072C34.8306 18.352 34.9506 19.24 35.1906 19.736C35.4466 20.216 35.7826 20.456 36.1986 20.456ZM39.9426 15.32L39.4626 15.152C39.7026 14.528 40.0866 14.008 40.6146 13.592C41.1586 13.176 41.7426 12.968 42.3666 12.968C42.8786 12.968 43.2626 13.112 43.5186 13.4C43.7906 13.672 43.9266 14.032 43.9266 14.48C43.9266 14.96 43.7986 15.32 43.5426 15.56C43.2866 15.784 42.9986 15.896 42.6786 15.896C42.4066 15.896 42.1506 15.8 41.9106 15.608C41.6866 15.416 41.5586 15.128 41.5266 14.744C41.4946 14.344 41.6306 13.832 41.9346 13.208L42.1026 13.352C41.4946 13.576 41.0386 13.84 40.7346 14.144C40.4306 14.432 40.1666 14.824 39.9426 15.32ZM52.8242 13.256C53.3362 13.256 53.7522 13.368 54.0722 13.592C54.3922 13.8 54.6242 14.072 54.7682 14.408C54.9282 14.744 55.0082 15.096 55.0082 15.464C55.0082 16.056 54.8322 16.544 54.4802 16.928C54.1442 17.296 53.6962 17.48 53.1362 17.48C52.5762 17.48 52.1362 17.344 51.8162 17.072C51.5122 16.784 51.3602 16.408 51.3602 15.944C51.3602 15.496 51.4562 15.128 51.6482 14.84C51.8562 14.536 52.1122 14.28 52.4162 14.072C52.1922 14.008 51.9682 14.016 51.7442 14.096C51.4402 14.144 51.1522 14.272 50.8802 14.48C50.6082 14.672 50.3762 14.92 50.1842 15.224C49.9922 15.512 49.8402 15.832 49.7282 16.184C49.6162 16.52 49.5602 16.848 49.5602 17.168V23.528C49.5602 24.296 49.7442 24.816 50.1122 25.088C50.4962 25.36 51.0642 25.496 51.8162 25.496V26C51.4482 25.984 50.9122 25.968 50.2082 25.952C49.5042 25.92 48.7682 25.904 48.0002 25.904C47.3602 25.904 46.7122 25.92 46.0562 25.952C45.4002 25.968 44.9042 25.984 44.5682 26V25.496C45.1282 25.496 45.5202 25.376 45.7442 25.136C45.9842 24.896 46.1042 24.44 46.1042 23.768V16.208C46.1042 15.488 45.9922 14.96 45.7682 14.624C45.5602 14.272 45.1602 14.096 44.5682 14.096V13.592C45.0802 13.64 45.5762 13.664 46.0562 13.664C46.7282 13.664 47.3522 13.64 47.9282 13.592C48.5202 13.528 49.0642 13.44 49.5602 13.328V15.56C49.7522 15.128 50.0082 14.736 50.3282 14.384C50.6482 14.032 51.0162 13.76 51.4322 13.568C51.8482 13.36 52.3122 13.256 52.8242 13.256ZM59.0833 26.168C58.3633 26.168 57.7633 26.032 57.2833 25.76C56.8033 25.488 56.4513 25.128 56.2273 24.68C56.0033 24.216 55.8913 23.712 55.8913 23.168C55.8913 22.48 56.0433 21.92 56.3473 21.488C56.6673 21.056 57.0753 20.704 57.5713 20.432C58.0673 20.16 58.5873 19.936 59.1313 19.76C59.6913 19.584 60.2193 19.416 60.7153 19.256C61.2273 19.08 61.6353 18.88 61.9393 18.656C62.2593 18.416 62.4193 18.112 62.4193 17.744V15.872C62.4193 15.456 62.3473 15.088 62.2033 14.768C62.0753 14.432 61.8673 14.176 61.5793 14C61.3073 13.824 60.9473 13.736 60.4993 13.736C60.1793 13.736 59.8593 13.784 59.5393 13.88C59.2193 13.96 58.9553 14.104 58.7473 14.312C59.1953 14.472 59.5393 14.72 59.7793 15.056C60.0353 15.376 60.1633 15.744 60.1633 16.16C60.1633 16.704 59.9713 17.136 59.5873 17.456C59.2193 17.776 58.7793 17.936 58.2673 17.936C57.6913 17.936 57.2513 17.76 56.9473 17.408C56.6593 17.04 56.5153 16.6 56.5153 16.088C56.5153 15.624 56.6273 15.24 56.8513 14.936C57.0913 14.632 57.4193 14.344 57.8353 14.072C58.2833 13.816 58.8193 13.616 59.4433 13.472C60.0833 13.328 60.7713 13.256 61.5073 13.256C62.2433 13.256 62.9073 13.336 63.4993 13.496C64.0913 13.64 64.5873 13.912 64.9873 14.312C65.3553 14.68 65.5953 15.136 65.7073 15.68C65.8193 16.208 65.8753 16.88 65.8753 17.696V24.224C65.8753 24.624 65.9153 24.904 65.9953 25.064C66.0753 25.208 66.2113 25.28 66.4033 25.28C66.5473 25.28 66.6833 25.24 66.8113 25.16C66.9553 25.08 67.1073 24.984 67.2673 24.872L67.5073 25.28C67.1713 25.568 66.7793 25.792 66.3313 25.952C65.8993 26.096 65.4113 26.168 64.8673 26.168C64.2753 26.168 63.8033 26.088 63.4513 25.928C63.0993 25.752 62.8433 25.52 62.6833 25.232C62.5393 24.944 62.4673 24.608 62.4673 24.224C62.0833 24.832 61.6193 25.312 61.0753 25.664C60.5313 26 59.8673 26.168 59.0833 26.168ZM60.7873 24.632C61.1073 24.632 61.3953 24.56 61.6513 24.416C61.9233 24.256 62.1793 24 62.4193 23.648V18.728C62.2753 18.968 62.0753 19.184 61.8193 19.376C61.5633 19.568 61.2913 19.768 61.0033 19.976C60.7153 20.168 60.4353 20.384 60.1633 20.624C59.9073 20.864 59.6993 21.16 59.5393 21.512C59.3793 21.864 59.2993 22.288 59.2993 22.784C59.2993 23.408 59.4353 23.872 59.7073 24.176C59.9793 24.48 60.3393 24.632 60.7873 24.632ZM77.1212 13.256C77.7932 13.256 78.3372 13.344 78.7532 13.52C79.1852 13.68 79.5212 13.904 79.7612 14.192C80.0172 14.496 80.2012 14.888 80.3132 15.368C80.4412 15.848 80.5052 16.496 80.5052 17.312V23.768C80.5052 24.44 80.6172 24.896 80.8412 25.136C81.0812 25.376 81.4812 25.496 82.0412 25.496V26C81.7372 25.984 81.2812 25.968 80.6732 25.952C80.0652 25.92 79.4652 25.904 78.8732 25.904C78.2652 25.904 77.6652 25.92 77.0732 25.952C76.4972 25.968 76.0572 25.984 75.7532 26V25.496C76.2332 25.496 76.5692 25.376 76.7612 25.136C76.9532 24.896 77.0492 24.44 77.0492 23.768V16.304C77.0492 15.904 77.0092 15.56 76.9292 15.272C76.8492 14.968 76.7052 14.736 76.4972 14.576C76.2892 14.4 75.9772 14.312 75.5612 14.312C75.1292 14.312 74.7292 14.432 74.3612 14.672C74.0092 14.912 73.7212 15.248 73.4972 15.68C73.2892 16.096 73.1852 16.568 73.1852 17.096V23.768C73.1852 24.44 73.2812 24.896 73.4732 25.136C73.6812 25.376 74.0172 25.496 74.4812 25.496V26C74.1932 25.984 73.7692 25.968 73.2092 25.952C72.6652 25.92 72.0972 25.904 71.5052 25.904C70.8972 25.904 70.2732 25.92 69.6332 25.952C68.9932 25.968 68.5132 25.984 68.1932 26V25.496C68.7532 25.496 69.1452 25.376 69.3692 25.136C69.6092 24.896 69.7292 24.44 69.7292 23.768V16.208C69.7292 15.488 69.6172 14.96 69.3932 14.624C69.1852 14.272 68.7852 14.096 68.1932 14.096V13.592C68.7052 13.64 69.2012 13.664 69.6812 13.664C70.3532 13.664 70.9772 13.64 71.5532 13.592C72.1452 13.528 72.6892 13.44 73.1852 13.328V15.488C73.5852 14.672 74.1292 14.096 74.8172 13.76C75.5052 13.424 76.2732 13.256 77.1212 13.256ZM94.7434 7.208V23.36C94.7434 24.08 94.8554 24.616 95.0794 24.968C95.3034 25.304 95.7034 25.472 96.2794 25.472V25.976C95.7834 25.928 95.2874 25.904 94.7914 25.904C94.1194 25.904 93.4874 25.928 92.8954 25.976C92.3194 26.024 91.7834 26.112 91.2874 26.24V10.088C91.2874 9.368 91.1754 8.84 90.9514 8.504C90.7434 8.152 90.3434 7.976 89.7514 7.976V7.472C90.2634 7.52 90.7594 7.544 91.2394 7.544C91.8954 7.544 92.5194 7.52 93.1114 7.472C93.7034 7.408 94.2474 7.32 94.7434 7.208ZM88.6234 13.256C89.3274 13.256 89.9434 13.376 90.4714 13.616C91.0154 13.84 91.4394 14.224 91.7434 14.768L91.4554 15.032C91.2474 14.648 90.9674 14.376 90.6154 14.216C90.2794 14.04 89.9194 13.952 89.5354 13.952C88.7194 13.952 88.0714 14.432 87.5914 15.392C87.1114 16.336 86.8794 17.8 86.8954 19.784C86.8954 21.144 86.9834 22.232 87.1594 23.048C87.3514 23.848 87.6154 24.424 87.9514 24.776C88.3034 25.128 88.7034 25.304 89.1514 25.304C89.6954 25.304 90.1834 25.088 90.6154 24.656C91.0474 24.224 91.2794 23.64 91.3114 22.904L91.4314 23.744C91.1914 24.592 90.7994 25.24 90.2554 25.688C89.7274 26.12 89.0314 26.336 88.1674 26.336C87.2234 26.336 86.3754 26.104 85.6234 25.64C84.8874 25.176 84.3114 24.464 83.8954 23.504C83.4794 22.528 83.2714 21.272 83.2714 19.736C83.2714 18.28 83.5034 17.08 83.9674 16.136C84.4314 15.176 85.0634 14.456 85.8634 13.976C86.6794 13.496 87.5994 13.256 88.6234 13.256ZM103.471 13.256C104.879 13.256 105.983 13.672 106.783 14.504C107.583 15.336 107.983 16.696 107.983 18.584H100.087L100.039 18.128H104.959C104.975 17.344 104.927 16.624 104.815 15.968C104.703 15.296 104.527 14.76 104.287 14.36C104.047 13.96 103.727 13.76 103.327 13.76C102.767 13.76 102.287 14.112 101.887 14.816C101.503 15.52 101.271 16.688 101.191 18.32L101.263 18.464C101.247 18.656 101.231 18.856 101.215 19.064C101.215 19.272 101.215 19.488 101.215 19.712C101.215 20.816 101.367 21.712 101.671 22.4C101.991 23.088 102.391 23.592 102.871 23.912C103.351 24.216 103.839 24.368 104.335 24.368C104.671 24.368 105.015 24.32 105.367 24.224C105.735 24.112 106.103 23.92 106.471 23.648C106.839 23.36 107.183 22.96 107.503 22.448L107.935 22.592C107.743 23.2 107.439 23.792 107.023 24.368C106.607 24.944 106.079 25.416 105.439 25.784C104.799 26.152 104.031 26.336 103.135 26.336C102.047 26.336 101.087 26.104 100.255 25.64C99.4231 25.176 98.7671 24.472 98.2871 23.528C97.8231 22.584 97.5911 21.384 97.5911 19.928C97.5911 18.44 97.8391 17.2 98.3351 16.208C98.8471 15.216 99.5431 14.48 100.423 14C101.319 13.504 102.335 13.256 103.471 13.256Z" fill="black"/>
<path d="M3.465 34.212C4.77767 34.212 5.753 34.542 6.391 35.202C7.029 35.8547 7.348 36.7933 7.348 38.018C7.348 38.8173 7.19033 39.5177 6.875 40.119C6.567 40.713 6.116 41.175 5.522 41.505C4.928 41.835 4.20933 42 3.366 42C3.256 42 3.10933 41.9963 2.926 41.989C2.74267 41.9817 2.552 41.978 2.354 41.978C2.16333 41.9707 1.98733 41.967 1.826 41.967C1.56933 41.967 1.31633 41.9707 1.067 41.978C0.817667 41.978 0.616 41.9853 0.462 42V41.78C0.711333 41.7653 0.898333 41.736 1.023 41.692C1.155 41.648 1.243 41.56 1.287 41.428C1.331 41.296 1.353 41.098 1.353 40.834V35.378C1.353 35.1067 1.331 34.9087 1.287 34.784C1.243 34.652 1.155 34.564 1.023 34.52C0.898333 34.4687 0.711333 34.4393 0.462 34.432V34.212C0.616 34.2193 0.817667 34.2303 1.067 34.245C1.31633 34.2523 1.562 34.2523 1.804 34.245C2.06067 34.2377 2.35033 34.2303 2.673 34.223C2.99567 34.2157 3.25967 34.212 3.465 34.212ZM3.19 34.41C2.85267 34.41 2.63267 34.4723 2.53 34.597C2.42733 34.7217 2.376 34.9747 2.376 35.356V40.856C2.376 41.2373 2.42733 41.4903 2.53 41.615C2.64 41.7397 2.86367 41.802 3.201 41.802C4.00033 41.802 4.62 41.659 5.06 41.373C5.5 41.0797 5.808 40.6543 5.984 40.097C6.16 39.5397 6.248 38.8613 6.248 38.062C6.248 37.2407 6.149 36.5623 5.951 36.027C5.76033 35.4843 5.44133 35.081 4.994 34.817C4.554 34.5457 3.95267 34.41 3.19 34.41ZM10.9412 36.181C11.5866 36.181 12.0889 36.379 12.4482 36.775C12.8149 37.1637 12.9982 37.7723 12.9982 38.601H9.11522L9.10422 38.392H11.9422C11.9569 38.0327 11.9276 37.7027 11.8542 37.402C11.7809 37.094 11.6636 36.8483 11.5022 36.665C11.3482 36.4817 11.1466 36.39 10.8972 36.39C10.5599 36.39 10.2592 36.5587 9.99522 36.896C9.73855 37.2333 9.58455 37.7687 9.53322 38.502L9.56622 38.546C9.55155 38.656 9.54055 38.777 9.53322 38.909C9.52589 39.041 9.52222 39.173 9.52222 39.305C9.52222 39.8037 9.60289 40.2327 9.76422 40.592C9.92555 40.9513 10.1346 41.2263 10.3912 41.417C10.6552 41.6003 10.9266 41.692 11.2052 41.692C11.4252 41.692 11.6342 41.659 11.8322 41.593C12.0302 41.5197 12.2136 41.4023 12.3822 41.241C12.5509 41.0797 12.6976 40.8633 12.8222 40.592L13.0422 40.68C12.9616 40.922 12.8296 41.1567 12.6462 41.384C12.4629 41.6113 12.2319 41.7983 11.9532 41.945C11.6746 42.0843 11.3519 42.154 10.9852 42.154C10.4572 42.154 10.0026 42.033 9.62122 41.791C9.24722 41.549 8.95755 41.2153 8.75222 40.79C8.55422 40.3573 8.45522 39.8623 8.45522 39.305C8.45522 38.6597 8.55789 38.106 8.76322 37.644C8.96855 37.1747 9.25822 36.8153 9.63222 36.566C10.0062 36.3093 10.4426 36.181 10.9412 36.181ZM18.8167 36.335V36.555C18.6774 36.5697 18.549 36.632 18.4317 36.742C18.3144 36.852 18.2044 37.0463 18.1017 37.325L16.2977 42.055C16.2684 42.055 16.239 42.055 16.2097 42.055C16.1804 42.055 16.1474 42.055 16.1107 42.055L14.0867 37.182C13.9694 36.896 13.852 36.7237 13.7347 36.665C13.6247 36.599 13.5294 36.566 13.4487 36.566V36.335C13.5954 36.3423 13.7457 36.3533 13.8997 36.368C14.061 36.3753 14.2334 36.379 14.4167 36.379C14.644 36.379 14.8824 36.3753 15.1317 36.368C15.3884 36.3607 15.6267 36.3497 15.8467 36.335V36.566C15.6634 36.566 15.4984 36.5807 15.3517 36.61C15.2124 36.632 15.1207 36.7017 15.0767 36.819C15.04 36.9363 15.0767 37.138 15.1867 37.424L16.5617 40.823L16.4957 40.878L17.7497 37.589C17.845 37.347 17.8817 37.1563 17.8597 37.017C17.845 36.8703 17.7717 36.7603 17.6397 36.687C17.515 36.6137 17.3207 36.5697 17.0567 36.555V36.335C17.1887 36.3423 17.3024 36.3497 17.3977 36.357C17.493 36.357 17.5847 36.3607 17.6727 36.368C17.768 36.368 17.8707 36.368 17.9807 36.368C18.1494 36.368 18.2997 36.3643 18.4317 36.357C18.571 36.3497 18.6994 36.3423 18.8167 36.335ZM21.7479 36.181C22.3932 36.181 22.8955 36.379 23.2549 36.775C23.6215 37.1637 23.8049 37.7723 23.8049 38.601H19.9219L19.9109 38.392H22.7489C22.7635 38.0327 22.7342 37.7027 22.6609 37.402C22.5875 37.094 22.4702 36.8483 22.3089 36.665C22.1549 36.4817 21.9532 36.39 21.7039 36.39C21.3665 36.39 21.0659 36.5587 20.8019 36.896C20.5452 37.2333 20.3912 37.7687 20.3399 38.502L20.3729 38.546C20.3582 38.656 20.3472 38.777 20.3399 38.909C20.3325 39.041 20.3289 39.173 20.3289 39.305C20.3289 39.8037 20.4095 40.2327 20.5709 40.592C20.7322 40.9513 20.9412 41.2263 21.1979 41.417C21.4619 41.6003 21.7332 41.692 22.0119 41.692C22.2319 41.692 22.4409 41.659 22.6389 41.593C22.8369 41.5197 23.0202 41.4023 23.1889 41.241C23.3575 41.0797 23.5042 40.8633 23.6289 40.592L23.8489 40.68C23.7682 40.922 23.6362 41.1567 23.4529 41.384C23.2695 41.6113 23.0385 41.7983 22.7599 41.945C22.4812 42.0843 22.1585 42.154 21.7919 42.154C21.2639 42.154 20.8092 42.033 20.4279 41.791C20.0539 41.549 19.7642 41.2153 19.5589 40.79C19.3609 40.3573 19.2619 39.8623 19.2619 39.305C19.2619 38.6597 19.3645 38.106 19.5699 37.644C19.7752 37.1747 20.0649 36.8153 20.4389 36.566C20.8129 36.3093 21.2492 36.181 21.7479 36.181ZM26.3883 33.376V40.977C26.3883 41.285 26.4506 41.494 26.5753 41.604C26.7073 41.714 26.9236 41.769 27.2243 41.769V42C27.0996 41.9927 26.909 41.9853 26.6523 41.978C26.403 41.9633 26.15 41.956 25.8933 41.956C25.644 41.956 25.391 41.9633 25.1343 41.978C24.8776 41.9853 24.687 41.9927 24.5623 42V41.769C24.863 41.769 25.0756 41.714 25.2003 41.604C25.3323 41.494 25.3983 41.285 25.3983 40.977V34.696C25.3983 34.366 25.3396 34.124 25.2223 33.97C25.105 33.8087 24.885 33.728 24.5623 33.728V33.497C24.797 33.519 25.0243 33.53 25.2443 33.53C25.457 33.53 25.6586 33.519 25.8493 33.497C26.0473 33.4677 26.227 33.4273 26.3883 33.376ZM30.3744 36.181C30.8437 36.181 31.2654 36.2837 31.6394 36.489C32.0134 36.6943 32.3104 37.017 32.5304 37.457C32.7577 37.897 32.8714 38.469 32.8714 39.173C32.8714 39.877 32.7577 40.449 32.5304 40.889C32.3104 41.3217 32.0134 41.6407 31.6394 41.846C31.2654 42.0513 30.8437 42.154 30.3744 42.154C29.9124 42.154 29.4907 42.0513 29.1094 41.846C28.7354 41.6407 28.4347 41.3217 28.2074 40.889C27.9874 40.449 27.8774 39.877 27.8774 39.173C27.8774 38.469 27.9874 37.897 28.2074 37.457C28.4347 37.017 28.7354 36.6943 29.1094 36.489C29.4907 36.2837 29.9124 36.181 30.3744 36.181ZM30.3744 36.401C29.9564 36.401 29.6117 36.6173 29.3404 37.05C29.0764 37.4827 28.9444 38.1903 28.9444 39.173C28.9444 40.1557 29.0764 40.8633 29.3404 41.296C29.6117 41.7213 29.9564 41.934 30.3744 41.934C30.7924 41.934 31.1334 41.7213 31.3974 41.296C31.6687 40.8633 31.8044 40.1557 31.8044 39.173C31.8044 38.1903 31.6687 37.4827 31.3974 37.05C31.1334 36.6173 30.7924 36.401 30.3744 36.401ZM35.4547 36.214V42.968C35.4547 43.2833 35.5464 43.4923 35.7297 43.595C35.9204 43.705 36.1807 43.76 36.5107 43.76V43.991C36.3494 43.9837 36.1257 43.9727 35.8397 43.958C35.5537 43.9507 35.2494 43.947 34.9267 43.947C34.6994 43.947 34.4721 43.9507 34.2447 43.958C34.0247 43.9727 33.8561 43.9837 33.7387 43.991V43.76C34.0027 43.76 34.1897 43.7123 34.2997 43.617C34.4097 43.5217 34.4647 43.342 34.4647 43.078V37.534C34.4647 37.204 34.4061 36.962 34.2887 36.808C34.1714 36.6467 33.9514 36.566 33.6287 36.566V36.335C33.8634 36.357 34.0907 36.368 34.3107 36.368C34.5234 36.368 34.7251 36.357 34.9157 36.335C35.1137 36.3057 35.2934 36.2653 35.4547 36.214ZM37.2147 36.181C37.6034 36.181 37.9517 36.2873 38.2597 36.5C38.5677 36.7053 38.8097 37.0097 38.9857 37.413C39.1691 37.8163 39.2607 38.315 39.2607 38.909C39.2607 39.305 39.2131 39.6973 39.1177 40.086C39.0224 40.4673 38.8721 40.8157 38.6667 41.131C38.4687 41.439 38.2084 41.6883 37.8857 41.879C37.5704 42.0623 37.1891 42.154 36.7417 42.154C36.3971 42.154 36.0964 42.0733 35.8397 41.912C35.5904 41.7507 35.4217 41.5563 35.3337 41.329L35.4437 41.175C35.5464 41.3803 35.6931 41.5527 35.8837 41.692C36.0817 41.8313 36.3274 41.901 36.6207 41.901C37.0314 41.901 37.3504 41.7727 37.5777 41.516C37.8051 41.2593 37.9627 40.9183 38.0507 40.493C38.1461 40.0603 38.1937 39.5837 38.1937 39.063C38.1937 38.4763 38.1461 37.996 38.0507 37.622C37.9554 37.248 37.8124 36.9693 37.6217 36.786C37.4311 36.6027 37.1964 36.511 36.9177 36.511C36.5584 36.511 36.2321 36.6613 35.9387 36.962C35.6454 37.2553 35.4584 37.7027 35.3777 38.304L35.2457 38.15C35.3264 37.5267 35.5464 37.0427 35.9057 36.698C36.2724 36.3533 36.7087 36.181 37.2147 36.181ZM43.7273 36.181C43.984 36.181 44.2077 36.2177 44.3983 36.291C44.589 36.3643 44.7467 36.467 44.8713 36.599C45.0107 36.7457 45.106 36.9363 45.1573 37.171C45.2087 37.4057 45.2343 37.6953 45.2343 38.04V40.977C45.2343 41.285 45.2967 41.494 45.4213 41.604C45.5533 41.714 45.7697 41.769 46.0703 41.769V42C45.9457 41.9927 45.755 41.9853 45.4983 41.978C45.2417 41.9633 44.9923 41.956 44.7503 41.956C44.5083 41.956 44.27 41.9633 44.0353 41.978C43.808 41.9853 43.6357 41.9927 43.5183 42V41.769C43.7823 41.769 43.9693 41.714 44.0793 41.604C44.1893 41.494 44.2443 41.285 44.2443 40.977V37.798C44.2443 37.5707 44.2297 37.3617 44.2003 37.171C44.171 36.9803 44.0977 36.8263 43.9803 36.709C43.863 36.5917 43.6723 36.533 43.4083 36.533C43.1223 36.533 42.8657 36.621 42.6383 36.797C42.4183 36.973 42.2423 37.215 42.1103 37.523C41.9857 37.8237 41.9233 38.161 41.9233 38.535V40.977C41.9233 41.285 41.9783 41.494 42.0883 41.604C42.1983 41.714 42.3853 41.769 42.6493 41.769V42C42.532 41.9927 42.356 41.9853 42.1213 41.978C41.894 41.9633 41.6593 41.956 41.4173 41.956C41.1753 41.956 40.926 41.9633 40.6693 41.978C40.4127 41.9853 40.222 41.9927 40.0973 42V41.769C40.398 41.769 40.6107 41.714 40.7353 41.604C40.8673 41.494 40.9333 41.285 40.9333 40.977V37.534C40.9333 37.204 40.8747 36.962 40.7573 36.808C40.64 36.6467 40.42 36.566 40.0973 36.566V36.335C40.332 36.357 40.5593 36.368 40.7793 36.368C40.992 36.368 41.1937 36.357 41.3843 36.335C41.5823 36.3057 41.762 36.2653 41.9233 36.214V37.512C42.114 37.0353 42.3743 36.6943 42.7043 36.489C43.0343 36.2837 43.3753 36.181 43.7273 36.181ZM47.0383 36.181C47.295 36.181 47.5187 36.2177 47.7093 36.291C47.9 36.3643 48.0577 36.467 48.1823 36.599C48.3217 36.7457 48.417 36.9363 48.4683 37.171C48.5197 37.4057 48.5453 37.6953 48.5453 38.04V40.977C48.5453 41.285 48.6077 41.494 48.7323 41.604C48.8643 41.714 49.0807 41.769 49.3813 41.769V42C49.2567 41.9927 49.066 41.9853 48.8093 41.978C48.5527 41.9633 48.3033 41.956 48.0613 41.956C47.8193 41.956 47.581 41.9633 47.3463 41.978C47.119 41.9853 46.9467 41.9927 46.8293 42V41.769C47.0933 41.769 47.2803 41.714 47.3903 41.604C47.5003 41.494 47.5553 41.285 47.5553 40.977V37.798C47.5553 37.5707 47.5407 37.3617 47.5113 37.171C47.482 36.9803 47.4087 36.8263 47.2913 36.709C47.174 36.5917 46.9833 36.533 46.7193 36.533C46.4333 36.533 46.1767 36.621 45.9493 36.797C45.7293 36.973 45.5533 37.2113 45.4213 37.512C45.2967 37.8127 45.2343 38.15 45.2343 38.524L45.2013 37.501C45.3993 36.995 45.667 36.6503 46.0043 36.467C46.3417 36.2763 46.6863 36.181 47.0383 36.181ZM52.535 36.181C53.1803 36.181 53.6826 36.379 54.042 36.775C54.4086 37.1637 54.592 37.7723 54.592 38.601H50.709L50.698 38.392H53.536C53.5506 38.0327 53.5213 37.7027 53.448 37.402C53.3746 37.094 53.2573 36.8483 53.096 36.665C52.942 36.4817 52.7403 36.39 52.491 36.39C52.1536 36.39 51.853 36.5587 51.589 36.896C51.3323 37.2333 51.1783 37.7687 51.127 38.502L51.16 38.546C51.1453 38.656 51.1343 38.777 51.127 38.909C51.1196 39.041 51.116 39.173 51.116 39.305C51.116 39.8037 51.1966 40.2327 51.358 40.592C51.5193 40.9513 51.7283 41.2263 51.985 41.417C52.249 41.6003 52.5203 41.692 52.799 41.692C53.019 41.692 53.228 41.659 53.426 41.593C53.624 41.5197 53.8073 41.4023 53.976 41.241C54.1446 41.0797 54.2913 40.8633 54.416 40.592L54.636 40.68C54.5553 40.922 54.4233 41.1567 54.24 41.384C54.0566 41.6113 53.8256 41.7983 53.547 41.945C53.2683 42.0843 52.9456 42.154 52.579 42.154C52.051 42.154 51.5963 42.033 51.215 41.791C50.841 41.549 50.5513 41.2153 50.346 40.79C50.148 40.3573 50.049 39.8623 50.049 39.305C50.049 38.6597 50.1516 38.106 50.357 37.644C50.5623 37.1747 50.852 36.8153 51.226 36.566C51.6 36.3093 52.0363 36.181 52.535 36.181ZM59.1224 36.181C59.4011 36.181 59.6321 36.2177 59.8154 36.291C60.0061 36.3643 60.1638 36.467 60.2884 36.599C60.4278 36.7457 60.5268 36.929 60.5854 37.149C60.6441 37.369 60.6734 37.666 60.6734 38.04V40.977C60.6734 41.285 60.7358 41.494 60.8604 41.604C60.9924 41.714 61.2088 41.769 61.5094 41.769V42C61.3848 41.9927 61.1941 41.9853 60.9374 41.978C60.6808 41.9633 60.4314 41.956 60.1894 41.956C59.9474 41.956 59.7091 41.9633 59.4744 41.978C59.2471 41.9853 59.0748 41.9927 58.9574 42V41.769C59.2214 41.769 59.4084 41.714 59.5184 41.604C59.6284 41.494 59.6834 41.285 59.6834 40.977V37.798C59.6834 37.5707 59.6651 37.3617 59.6284 37.171C59.5918 36.9803 59.5074 36.8263 59.3754 36.709C59.2508 36.5917 59.0564 36.533 58.7924 36.533C58.4844 36.533 58.2131 36.621 57.9784 36.797C57.7511 36.973 57.5714 37.215 57.4394 37.523C57.3148 37.8237 57.2524 38.161 57.2524 38.535V40.977C57.2524 41.285 57.3074 41.494 57.4174 41.604C57.5274 41.714 57.7144 41.769 57.9784 41.769V42C57.8611 41.9927 57.6851 41.9853 57.4504 41.978C57.2231 41.9633 56.9884 41.956 56.7464 41.956C56.5044 41.956 56.2551 41.9633 55.9984 41.978C55.7418 41.9853 55.5511 41.9927 55.4264 42V41.769C55.7271 41.769 55.9398 41.714 56.0644 41.604C56.1964 41.494 56.2624 41.285 56.2624 40.977V37.534C56.2624 37.204 56.2038 36.962 56.0864 36.808C55.9691 36.6467 55.7491 36.566 55.4264 36.566V36.335C55.6611 36.357 55.8884 36.368 56.1084 36.368C56.3211 36.368 56.5228 36.357 56.7134 36.335C56.9114 36.3057 57.0911 36.2653 57.2524 36.214V37.512C57.4431 37.0133 57.7071 36.6687 58.0444 36.478C58.3891 36.28 58.7484 36.181 59.1224 36.181ZM63.7609 34.509V36.346H65.3889V36.566H63.7609V40.823C63.7609 41.1677 63.8232 41.4097 63.9479 41.549C64.0726 41.6883 64.2449 41.758 64.4649 41.758C64.6849 41.758 64.8756 41.67 65.0369 41.494C65.1982 41.3107 65.3376 41.0063 65.4549 40.581L65.6749 40.636C65.6016 41.0613 65.4549 41.4207 65.2349 41.714C65.0222 42.0073 64.6922 42.154 64.2449 42.154C63.9956 42.154 63.7902 42.121 63.6289 42.055C63.4676 41.9963 63.3246 41.9083 63.1999 41.791C63.0386 41.6223 62.9249 41.4207 62.8589 41.186C62.8002 40.9513 62.7709 40.6397 62.7709 40.251V36.566H61.7149V36.346H62.7709V34.663C62.9542 34.6557 63.1302 34.641 63.2989 34.619C63.4676 34.597 63.6216 34.5603 63.7609 34.509Z" fill="black"/>
</svg>
